<svg width="33" height="23" viewBox="0 0 33 23" fill="none" xmlns="http://www.w3.org/2000/svg">
<path fill-rule="evenodd" clip-rule="evenodd" d="M21.404 0.577805L22.82 1.61505C22.9251 1.68657 23.0128 1.77894 23.0773 1.88589C23.1418 1.99284 23.1816 2.11186 23.1939 2.23486C23.2062 2.35787 23.1908 2.48198 23.1486 2.59875C23.1065 2.71552 23.0387 2.82223 22.9498 2.91161L14.5832 11.9149C14.4951 12.013 14.3719 12.0759 14.2378 12.0913C14.1038 12.1066 13.9687 12.0733 13.8589 11.9979L13.5346 11.7697C13.4367 11.6939 13.3146 11.6526 13.1887 11.6526C13.0629 11.6526 12.9408 11.6939 12.8428 11.7697L8.32247 15.7922C11.5303 15.4119 14.7118 14.8377 17.8481 14.0723C22.937 12.7824 27.7415 10.6214 32.0302 7.69329C32.0302 7.69329 33.3057 10.5353 32.3869 11.583C28.5522 16.0537 10.7058 19.986 4.66619 19.0385L0.595636 22.64L0.292969 22.3185L3.5334 18.7477C3.30951 18.6567 3.12535 18.5506 2.98496 18.4288C2.71618 17.7314 2.5277 17.008 2.42287 16.2713C3.61637 16.2187 4.80789 16.1394 5.99646 16.0336L19.8907 0.72302C20.0721 0.512412 20.3328 0.379021 20.6162 0.35183C20.8996 0.32464 21.1827 0.405846 21.404 0.577805ZM5.10397 17.2892C5.06445 17.3553 5.03612 17.4274 5.02047 17.5029C4.99211 17.6397 5.00666 17.7815 5.0623 17.9104C5.11793 18.0393 5.21215 18.1494 5.33302 18.2269C5.4539 18.3044 5.59602 18.3458 5.7414 18.3458C5.83833 18.3472 5.93456 18.3299 6.0244 18.295C6.11424 18.26 6.19585 18.2081 6.2644 18.1423C6.33295 18.0766 6.38704 17.9982 6.42346 17.912C6.45989 17.8258 6.4779 17.7335 6.47644 17.6405C6.47644 17.5783 6.46788 17.5168 6.45124 17.4574L6.44359 17.4642C6.39736 17.32 6.30417 17.1938 6.17771 17.1042C6.05125 17.0146 5.89818 16.9663 5.74098 16.9663C5.56665 16.9633 5.39673 17.019 5.26075 17.1237C5.19931 17.171 5.14655 17.227 5.10397 17.2892Z" fill="#303030"/>
</svg>
